<?xml version="1.0" encoding="UTF-8"?>
<svg id="Layer_2" data-name="Layer 2" xmlns="http://www.w3.org/2000/svg" viewBox="0 0 504.92 274.54">
  <defs>
    <style>
      .cls-1 {
        fill: #162349;
      }
    </style>
  </defs>
  <g id="Layer_1-2" data-name="Layer 1">
    <g>
      <path class="cls-1" d="M160.23,237.45c-1.54-.36-3.41-.41-5.6-.16l-16.35,1.94,2.72,22.99,7.03-.83-.99-8.34,9.26-1.1c2.1-.25,3.87-.76,5.31-1.54,1.44-.78,2.48-1.78,3.12-3,.64-1.22.87-2.63.68-4.23-.18-1.49-.7-2.72-1.57-3.71-.87-.98-2.08-1.66-3.62-2.02ZM157.76,246.34c-.55.54-1.37.88-2.46,1l-8.8,1.04-.63-5.35,8.8-1.04c.74-.09,1.39-.05,1.93.1.54.16.96.42,1.27.77.31.35.5.81.56,1.38.1.85-.12,1.55-.67,2.09Z"/>
      <path class="cls-1" d="M177.07,235.05l-9.11,23.97,5.9-.49,1.69-4.51,13.09-1.08,2.43,4.18,7.45-.61-13.33-22.13-8.11.67ZM177.38,249.09l3.53-9.45,5.08,8.74-8.6.71Z"/>
      <rect class="cls-1" x="203.08" y="233.01" width="7.08" height="23.15" transform="translate(-12.76 11.38) rotate(-3.06)"/>
      <polygon class="cls-1" points="239.25 231.85 239.58 245.77 239.7 247.35 226.85 232.15 218.16 232.35 218.71 255.5 224.76 255.35 224.39 239.98 224.21 238.27 238.25 255.03 245.85 254.85 245.3 231.71 239.25 231.85"/>
      <polygon class="cls-1" points="252.09 236.73 262.24 236.89 261.97 254.97 269.11 255.08 269.39 236.99 279.54 237.15 279.61 232.09 252.17 231.68 252.09 236.73"/>
      <rect class="cls-1" x="277.71" y="240.6" width="23.15" height="7.08" transform="translate(33 522.72) rotate(-87.55)"/>
      <polygon class="cls-1" points="321.99 248.49 321.96 250.08 310.63 233.71 301.95 233.07 300.27 256.16 306.31 256.6 307.42 241.27 307.4 239.55 319.77 257.58 327.35 258.13 329.03 235.04 322.99 234.6 321.99 248.49"/>
      <path class="cls-1" d="M350.98,252.42l6.9.8c-.6.8-1.3,1.42-2.11,1.88-.81.46-1.73.78-2.77.95-1.04.17-2.16.18-3.37.05-1.49-.17-2.78-.59-3.88-1.25-1.1-.66-1.91-1.56-2.43-2.71s-.7-2.48-.52-3.99c.17-1.47.65-2.7,1.44-3.7s1.79-1.71,2.99-2.15c1.2-.44,2.53-.58,3.98-.41,1.69.19,3.1.69,4.24,1.47,1.14.79,1.97,1.82,2.49,3.09l6.86-.64c-.74-2.46-2.22-4.45-4.44-5.98-2.22-1.54-5.06-2.5-8.52-2.9-2.98-.34-5.67-.12-8.08.67-2.41.79-4.36,2.06-5.85,3.8-1.49,1.75-2.38,3.88-2.67,6.4-.27,2.32.12,4.42,1.15,6.31,1.04,1.88,2.58,3.41,4.63,4.59s4.48,1.93,7.28,2.25c1.84.21,3.53.17,5.08-.13s2.95-.82,4.22-1.56c.62-.36,1.21-.79,1.76-1.27l1.16,3.77,3.22.37,1.45-12.61-13.7-1.59-.51,4.47Z"/>
      <path class="cls-1" d="M469.85,142.75l-53.52-16.81-26.78-27.53-44.54-9.19-16.74-23.36-33.61-21.76L265.35,0l-28.81,40.24-21.79,12.85-11.43,12.07-14.49-26.53-26.53,29.34-28.34,20.9-9.76,17.55-50.81,16.95-18.48,20.3-49.92,21.47-4.98,2.14,1.42,5.13v.04l26.24,96.93,1.39,5.16c1.71-.5,3.42-.96,5.16-1.39,29.45-7.87,59.54-14.17,90.16-18.84l-.82-5.27c-30.8,4.66-61.07,11-90.73,18.94l-24.07-88.88-2.17-8.08-.21-.68,7.12-3.06.07-.04,12.46-5.34,6.87-2.96.04-.04h.11l17.7-7.62,7.34-3.17,18.34-20.12,51.45-17.16,10.22-18.37,27.81-20.51,21.86-24.18,3.56,27.38-13.39,12.43,19.76,14.6-26.28,26.46,10.08,7.55,6.48,4.84c21.29-1.42,42.8-2.14,64.49-2.14,49,0,97.14,3.7,144.14,10.9,21.79,3.31,43.37,7.34,64.66,12.11,7.51,1.67,14.95,3.45,22.4,5.34,4.91,1.21,9.79,2.46,14.67,3.77l-4.24,15.63-22,81.33c-29.63-7.94-59.89-14.28-90.69-18.94l-.82,5.27c30.62,4.66,60.68,10.97,90.12,18.84,1.75.43,3.45.89,5.16,1.39l1.39-5.16,26.17-96.64.07-.32,1.42-5.16-4.7-3.28-30.37-21.22ZM291.56,125.73l-31.69-18.91-26.28-1.82-6.2-22.18-19.05-15.2,9.76-10.33,22.11-13,25-34.9,5.56,21.93-10.18,15.95,24.64,10.79-7.23,22.72,44.01,21.26-3.74,15.42,22.43,20.12-49.14-11.86Z"/>
      <path class="cls-1" d="M75.23,233.09c1.93-.42,3.59-.99,6.67-1.66s4.73-.83,6.5-1.22c2.59-.57,3.76-1.34,3.31-3.4-.27-1.22-1.52-1.94-2.33-2.48-2.08-1.34-3.3-3.15-3.95-4.24l-21.83-36.65c-1.05-1.8-1.94-3.08-3.68-2.71-2.13.47-6.58,4.16-6.46,6.88.15,2.08.18,4.91-.08,7.8l-3.38,32.35c-.69,6.46-3.38,6.85-2.86,9.25.3,1.37,1.22,1.97,2.63,1.66,1.44-.32,2.38-.72,3.92-1.06,1.51-.33,3.94-.66,5.35-.97,2.13-.47,2.54-1.56,2.28-2.77-.47-2.17-3.99-1.92-4.72-5.27-.28-1.3.14-4.54.55-5.83.29-.58.82-1.1,1.68-1.28l11.37-2.49c.66-.14,1.26.12,1.6.57.95,1.23,2.4,3.91,2.53,4.52.76,3.46-2.93,5.11-2.46,7.28.32,1.48,1.43,2.16,3.37,1.74ZM66.97,212.59l-8.65,1.89c-.59.13-.81-.1-.9-.52-.21-.95.72-11.49,1.43-15.16.11-.46.2-.96.46-1.02.2-.04.59.35.85.73,2.35,3.2,7.2,12.07,7.45,13.21.09.42.02.71-.64.86Z"/>
      <path class="cls-1" d="M127.05,207.61c-.34-2.04-1.05-3.23-2.21-3.03-1.06.18-1.57,1.37-1.98,3.85-.74,5.58-2.12,9.14-9.36,10.35-4.57.77-6.02.22-6.72-4.02l-2.6-15.62c-1.15-6.92-2.04-12.47-2.16-14.15-.56-6.19,3.88-6.3,3.34-9.57-.21-1.27-.97-2.17-2.73-1.87-1.92.32-5.53,1.12-7.74,1.49-2.15.36-4.7.59-6.72.93-1.85.31-2.22,1.4-2,2.67.49,2.92,3.71,2.03,5.14,8,.39,1.71,1.61,9.06,2.48,14.25,1.67,10,2.67,16.64,2.71,18.69.12,4.41-2.98,4.77-2.54,7.42.23,1.38,1.28,1.96,2.97,1.68,2.12-.35,6.32-1.26,15.16-2.74,5.76-.96,10.82-1.61,13.57-2.07,2.28-.38,2.93-1.2,2.66-3.61-.61-5.51-.9-10.49-1.26-12.64Z"/>
      <path class="cls-1" d="M148.91,166.93c-4.2.5-8.09,1.24-11.76,1.68-3.9.46-5.05.4-8.42.8-1.86.22-2.28,1.29-2.13,2.57.36,2.98,3.58,2.25,4.74,8.31.3,1.66,1.21,9.01,1.84,14.28.9,7.52,1.87,16.56,1.84,18.8-.01,4.44-3.19,4.7-2.88,7.3.15,1.28,1.05,2.03,2.89,1.82,1.6-.19,4.44-.72,6.74-1,2.16-.26,6.48-.58,8.45-.81,2.13-.25,3.49-1.04,3.26-2.98-.19-1.59-1.67-2.12-3.33-2.75-2.37-.86-4.07-2.15-4.52-5.87l-.67-5.58c-.28-2.33-.24-3.12,1.2-3.29,1.4-.17,3.2.21,6.4-.17,11.19-1.33,15.25-9.79,14.14-19.09-1.15-9.65-8.16-15.18-17.78-14.03ZM149.16,193.42c-3.63.43-5.54-.28-6.15-5.44l-.95-7.94c-.56-4.73.04-5.31,3.57-5.73,5-.59,8.93,2.95,9.61,8.68.71,5.93-1.49,9.88-6.09,10.43Z"/>
      <path class="cls-1" d="M191.08,169.85c7.2-.5,8.54.89,11.54,6.74.85,1.54,1.64,3.21,3.01,3.11.94-.07,1.76-.79,1.65-2.42-.04-.5-.31-2.01-.64-3.32-.71-2.96-1.33-6.01-1.71-7.66-.72-3.51-1.55-3.96-3.93-3.79-2.41.17-6.01.62-12.67,1.08-7.7.54-11.63.62-15.01.85-1.87.13-2.34,1.18-2.25,2.46.21,3,3.47,2.42,4.33,8.53.22,1.67.77,9.06,1.14,14.35.53,7.55,1.06,16.62.91,18.86-.23,4.43-3.42,4.54-3.23,7.14.09,1.28.95,2.08,2.79,1.96,4.58-.32,10.33-.92,16.39-1.34,5.46-.38,10.79-.56,13.17-.72,2.34-.16,3.04-.76,3.01-3.14.02-4.03.53-10.24.4-12.15-.17-2.38-.86-3.22-1.87-3.15-.97.07-1.66,1.29-2.19,2.89-2.01,6.31-4.02,8.84-11.39,9.35-4.62.32-6.13-.16-6.51-5.56l-.58-8.25c-.2-2.84.24-3.81,1.68-3.91,4.62-.32,5.32,1,6.65,3.72.51,1.1,1.14,2.42,2.48,2.33,1.24-.09,1.53-1.24,1.38-3.3l-.79-11.24c-.24-3.5-.87-4.71-2.14-4.62-.6.05-1.07.55-1.43,1.23-1.07,2.46-1.39,4.71-6.84,5.09-1.27.09-1.78-.46-2.01-3.69l-.42-6.03c-.3-4.28.49-5.08,5.07-5.4Z"/>
      <path class="cls-1" d="M256,209.85c-.1-5.77-.64-5.84-1.03-25.46-.09-5.19-.14-11.35-.03-13.03.3-5.82,3.29-5.21,3.24-8.18-.02-1.32-.65-2.29-2.32-2.26-1.51.03-3.45.26-4.96.29-1.27.02-3.29-.14-5.03-.11-1.71.03-2.36.9-2.34,2.31.04,2.15,2.33,2.65,3.45,5.6,1.05,2.2,1.51,9.07,1.64,16.59.12,6.75.03,6.99-.34,6.99-.17,0-1.12-.96-2.57-2.96l-14.83-22.56c-2.13-2.93-2.89-4.24-4.04-4.85-.85-.49-2.06-.55-4-.51-1.71.03-4.5-.12-5.74-.09-1.64.03-2.4.94-2.37,2.34.05,3,3.3,2.59,3.88,8.75.13,1.52.25,6.28.4,14.51.17,9.44.18,15.64.08,17.48-.3,5.82-3.8,5.22-3.74,8.15.02,1.32.71,2.25,2.35,2.22,1.84-.03,3.89-.26,5.43-.29,1.27-.02,3.12.14,5.07.11,1.68-.03,2.4-.94,2.37-2.35-.04-2.1-2.32-2.38-3.52-5.48-.94-2.21-1.65-9.45-1.8-17.84-.14-7.6-.08-8.39.42-8.4.27,0,.61.54,1.33,1.46l20.5,30.31c1.13,1.5,2.32,2.34,3.19,2.32,3.22-.06,5.36-2.36,5.31-5.05Z"/>
      <path class="cls-1" d="M302.36,215.87c1.64.06,2.19-1.13,2.27-3.11.1-2.61.03-9.83.2-14.23.3-8.06,2.33-7.6,2.45-10.6.05-1.32-.55-2.36-2.06-2.42-2.55-.09-4.67.06-6.98-.03-1.71-.06-4.11-.39-6.03-.46-1.98-.08-2.99.82-3.04,2.38-.07,1.99,1.56,2.16,2.83,3.3,1.46,1.3,2.68,1.82,2.44,8.28-.11,2.81-.29,4.28-1.08,5.66-.93,1.52-3.26,2.88-5.85,2.79-6.67-.25-13.07-9.38-12.57-22.82.36-9.58,4.95-18.15,12.36-17.88,4.02.15,7.97,3.19,10.87,8.32,1.38,2.51,2.2,4.92,3.97,4.99.97.03,1.84-.71,1.9-2.39.04-1.09-.38-2.4-1.05-7.69-.63-4.66-.58-7.67-3.17-7.76-1.34-.05-2.34.73-3.85.68-2.11-.08-4.46-2.04-9.62-2.23-14.65-.55-22.44,12.94-22.98,27.19-.55,14.61,7.37,27.93,20.52,28.42,4.26.16,7.7-1.19,10.16-2.27,1.67-.75,2.94-1.49,3.95-1.45.67.02,1.31.83,1.99,1.59.76,1.08,1.55,1.7,2.39,1.73Z"/>
      <path class="cls-1" d="M315.13,207.67c-.98,4.3-4.08,3.87-4.32,6.55-.12,1.4.75,2.22,2.45,2.37,2.14.19,6.43.37,15.36,1.15,5.81.51,10.88,1.15,13.65,1.39,2.31.2,3.14-.43,3.48-2.83.79-5.49,1.76-10.38,1.95-12.55.18-2.06-.21-3.38-1.38-3.49-1.07-.09-1.87.93-2.88,3.23-2.11,5.22-4.34,8.31-11.65,7.67-4.61-.41-5.88-1.3-5.5-5.57l1.39-15.77c.62-6.99,1.14-12.58,1.46-14.24,1.01-6.13,5.34-5.13,5.63-8.43.11-1.28-.4-2.35-2.17-2.5-1.94-.17-5.63-.3-7.87-.5-2.17-.19-4.69-.61-6.73-.79-1.87-.16-2.5.8-2.61,2.08-.26,2.95,3.08,2.89,2.98,9.03-.05,1.76-.71,9.18-1.17,14.42-.89,10.1-1.58,16.77-2.06,18.77Z"/>
      <path class="cls-1" d="M397.33,200.83c2.6-18.5-6.4-30.29-18.62-32.01-13.21-1.86-23.85,8.3-26.18,24.84-2.22,15.8,4.68,28.35,18.89,30.35,12.35,1.74,23.45-5.68,25.91-23.18ZM385.11,203.68c-1.42,10.12-6.18,13.63-10.93,12.96-3.29-.46-6.6-3.41-8.11-9.26-1.27-5.42-1.17-11.63-.44-16.89,1.62-11.55,6.54-15.67,10.65-15.08,3.55.5,6.63,4.4,8.03,10.31,1.34,5.19,1.6,12.24.79,17.96Z"/>
      <path class="cls-1" d="M423.31,179.63c.29-1.42-.34-2.5-2.08-2.87-1.74-.36-4.14-.66-6.87-1.23-2.76-.58-4.1-1.05-5.67-1.38-2.36-.49-3.64-.12-4.04,1.83-.25,1.22.42,2.44.94,3.23,1.18,1.88,1.51,3.78,1.63,5.52l2.99,36.37c.21,2.63.57,5.5.61,5.82.32,2.1.99,3.47,2.6,3.81.95.2,4.14-.13,6.43-2.92,1.57-1.94,8.41-15.42,11.74-22.22.48-1.02.88-1.61,1.11-1.56.16.03.33.39.35,1.11.56,5.89,1.58,23.24,2.26,26.89.38,2.11.99,3.48,2.6,3.81.98.21,4.27-.1,6.56-2.9,1.2-1.5,3.1-4.89,4.49-7.79l14.1-28.66c2.66-5.54,5.32-4.99,5.85-7.58.27-1.3-.29-2.22-1.57-2.48-1.31-.27-2.62-.39-3.94-.66-1.44-.3-4.23-1.08-5.51-1.35-1.87-.39-2.66.44-2.91,1.67-.48,2.33,2.53,3.32,1.82,6.75-.56,2.67-9.12,21.65-10.93,24.94-.43.75-.73,1.2-.89,1.17-.13-.03-.23-.37-.33-1.03-.5-3.37-1.31-25.34-.88-27.4.71-3.44,3.51-3.53,3.98-5.79.33-1.57-.5-2.54-2.14-2.88-1.71-.35-3.78-.59-6.41-1.14-1.44-.3-4.23-1.08-5.54-1.36-1.84-.38-2.63.45-2.88,1.67-.48,2.33,2.17,3.56,1.35,7.49-.6,2.9-9.37,21.36-10.93,24.26-.24.51-.6,1.07-.8,1.03-.13-.02-.26-.41-.31-.82-.57-3.51-1.53-25.62-1.11-27.61.73-3.51,3.86-3.42,4.34-5.75Z"/>
    </g>
  </g>
</svg>